<svg width="16" height="12" viewBox="0 0 16 12" fill="none" xmlns="http://www.w3.org/2000/svg">
<path fill-rule="evenodd" clip-rule="evenodd" d="M14.9557 2.02276C15.2815 1.69775 15.2815 1.1694 14.9557 0.844388C14.6307 0.518545 14.1031 0.518545 13.7773 0.844388L4.98204 9.63964L2.2228 6.88123C1.89779 6.55539 1.36944 6.55539 1.04443 6.88123C0.718588 7.20707 0.718588 7.73459 1.04443 8.0596L4.35119 11.3672C4.36453 11.3814 4.37703 11.3955 4.39119 11.4089C4.5537 11.5722 4.76704 11.653 4.98038 11.653C5.02038 11.653 5.06038 11.6505 5.10038 11.6447C5.27289 11.6205 5.43956 11.5422 5.57206 11.4089C5.58623 11.3955 5.59956 11.3814 5.61206 11.3664L14.9557 2.02276Z" fill="#21943A"/>
</svg>
